<?xml version="1.0" encoding="utf-8"?>
<!-- Generator: Adobe Illustrator 19.2.1, SVG Export Plug-In . SVG Version: 6.00 Build 0)  -->
<svg version="1.1" id="Layer_1" xmlns="http://www.w3.org/2000/svg" xmlns:xlink="http://www.w3.org/1999/xlink" x="0px" y="0px"
	 viewBox="0 0 24 24" style="enable-background:new 0 0 24 24;" xml:space="preserve">
<style type="text/css">
	.st0{fill:#2CA4F2;}
</style>
<path class="st0" d="M21.2,8.6c-0.9,1.5-2.3,3.1-4.1,3c-0.4,0.7-0.9,1.7-1.3,2.8L14.4,15c0.9-2.3,2.2-5,3.7-7
	c-0.7,0.5-1.7,1.6-2.7,2.8c-1.1-1.8-0.3-3.7,1-5.2c0,0.6,0.4,1.2,0.6,1.5c-0.1-0.5-0.1-1.5,0.2-2.4C17.9,4,18.6,3.5,19.3,3
	c-0.1,0.5,0.1,1,0.3,1.4c0-0.5,0.2-1.4,0.5-1.8C21,1.8,22.4,1.1,24,1c-0.1,1-0.4,2.6-1,3.6c-0.5,0.4-1.2,0.7-1.8,0.8
	c0.5,0.1,1,0.1,1.5,0c-0.3,0.7-0.6,1.4-1,2.3c-0.7,0.5-1.6,0.7-2.2,0.8C19.9,8.7,20.8,8.8,21.2,8.6z M7.3,12.4L8,13.2l4.8-2.8
	l-0.7-0.8C12.1,9.7,7.3,12.4,7.3,12.4z M14.3,12.2l-0.7-0.8l-4.8,2.8L9.4,15L14.3,12.2z M19,12.2c-0.4,0.2-0.9,0.3-1.3,0.4
	c-0.1,0.2-0.2,0.5-0.4,0.8l0.3,0.3c0.6,0.7,0.5,1.7-0.4,2.2c-0.8,0.5-5.3,3.4-6.4,4c-0.1-0.7-0.4-1.4-0.8-1.9
	c-0.5-0.6-6.1-7.4-7.5-9.2C2,8.3,1.9,7.6,2.2,7.1C2.5,6.5,3,6.1,3.6,6.1c0.9,0,1.4,0.7,1.5,1.2C5.3,8,5.1,8.6,4.5,9l1.3,1.6l7.8-4.4
	c1.4-1.1,1.8-3,0.9-4.5C14,0.7,12.8,0,11.6,0c-1.2,0-0.8,0-9.6,4.5C0.8,5.1,0,6.3,0,7.7c0,0.9,0.3,1.8,0.9,2.5
	c1.4,1.8,7.6,9.2,7.6,9.3c0.4,0.5,0.4,1.1,0.1,1.7C8.4,21.6,7.8,22,7.2,22c-0.9,0-1.4-0.7-1.5-1.2c-0.2-0.6,0-1.2,0.6-1.7L5,17.6
	c-0.8,0.7-1.3,1.5-1.4,2.4c-0.2,2.2,1.5,4,3.6,4c0.6,0,1.3-0.2,1.8-0.5l9.4-5.9c1-0.7,1.5-1.8,1.5-2.9c0-0.7-0.2-1.5-0.7-2
	C19.3,12.6,19,12.2,19,12.2z M11,2.2C11.2,2.1,11.4,2,11.6,2c0.5,0,1,0.3,1.2,0.8c0.3,0.6,0.2,1.5-0.5,1.9L7.2,7.6
	C7.2,6.5,6.6,5.5,5.8,4.8C5.8,4.8,11,2.2,11,2.2z M13.1,15.5l0.4-0.9l0.2-0.6l-3.4,2l0.6,0.8C10.9,16.8,13.1,15.5,13.1,15.5z"/>
</svg>
